,
Brought to you by  http://www.scenetime.com/signup.php
 
 Hottest scene tracker on the net !!!   
 
No fake torrents from scenebalance 
shame on those who comment fake before downloading my torrents

    seed back for speed


 



...................................NFO:.................................................[pre]

*******************************************************************************
                  Limitless.2011.R5.LiNE.XviD.AC3-PRESTiGE
*******************************************************************************

-------------------------------------------------------------------------------
                              General Information
-------------------------------------------------------------------------------

TiTLE............: Limitless.2011.R5.LiNE.XviD.AC3-PRESTiGE 

iMDB.............: http://www.imdb.com/title/tt1219289/

GENRE............: Mystery | Sci-Fi | Thriller 

LANGUAGE.........: English

SOURCE...........: DVD-TDP MANY MANY THANKS!!

ENCODED by.......: akosipalos

FiLE SiZE........: 1.76GB

SUBS.............: N/A

DURATiON.........: 1h 40mn



ViDEO iNFO:

ID                               : 0
Format                           : MPEG-4 Visual
Format profile                   : Advanced Simple@L5
Format settings, BVOP            : No
Format settings, QPel            : No
Format settings, GMC             : No warppoints
Format settings, Matrix          : Custom
Codec ID                         : XVID
Codec ID/Hint                    : XviD
Duration                         : 1h 40mn
Bit rate                         : 2 051 Kbps
Width                            : 720 pixels
Height                           : 304 pixels
Display aspect ratio             : 2.35:1
Frame rate                       : 25.000 fps
Color space                      : YUV
Chroma subsampling               : 4:2:0
Bit depth                        : 8 bits
Scan type                        : Progressive
Bits/(Pixel*Frame)               : 0.375
Stream size                      : 1.44 GiB (82%)
Writing library                  : XviD 58


AUDiO iNFO:

ID                               : 1
Format                           : AC-3
Format/Info                      : Audio Coding 3
Mode extension                   : CM (complete main)
Codec ID                         : 2000
Duration                         : 1h 40mn
Bit rate mode                    : Constant
Bit rate                         : 448 Kbps
Channel(s)                       : 6 channels
Channel positions                : Front: L C R, Side: L R, LFE
Sampling rate                    : 48.0 KHz
Bit depth                        : 16 bits
Stream size                      : 322 MiB (18%)
Alignment                        : Aligned on interleaves
Interleave, duration             : 96 ms (2.40 video frames)
Interleave, preload duration     : 96 ms
Language                         : English



-------------------------------------------------------------------------------
                                 PLOT:
-------------------------------------------------------------------------------


A writer discovers a top-secret drug which bestows him with super human abilities.


-------------------------------------------------------------------------------
                                 CAST:
-------------------------------------------------------------------------------

Bradley Cooper ... Eddie Morra
Robert De Niro ... Carl Van Loon
Abbie Cornish ... Lindy
Andrew Howard ... Gennady
Anna Friel ... Melissa
Johnny Whitworth ... Vernon
Tomas Arana ... Man in Tan Coat
Robert John Burke ... Pierce
Darren Goldstein ... Kevin Doyle
Ned Eisenberg ... Morris Brandt
T.V. Carpio ... Valerie
Richard Bekins ... Hank Atwood
Patricia Kalember ... Mrs. Atwood
Cindy Katz ... Marla Sutton
Brian Anthony Wilson ... Detective (as Brian A. Wilson)

-------------------------------------------------------------------------------
                             Release Notes
-------------------------------------------------------------------------------


PRESTiGE - IS LOOKING FOR?: CAMMER'S, AUDIO SUPPLIERS, SYNCER'S, RETAIL
SUPPLIER'S, SILVER'S, SCREENER'S, LINE CAPPER'S

ENCODER'S - ANYTHING AT ALL EMAIL US AT..... prestige@hushmail.me

** ** ** ** ** ** ** ** **

PRESTiGE is the level of respect at which one is regarded by others....RIzE Above Or Sink Below...


-------------------------------------------------------------------------------
                                 GREETZ:
-------------------------------------------------------------------------------


twisted ,bigguy, CTFX, HiTM4N, smelise.paranoid53, mtyy, fifer, akosipalos, DiLLoN, imagine,"the squad" , floridajoe and To All Encoders Past And Present...


-------------------------------------------------------------------------------
Generated with Cool NFO Creator - http://fly.to/coolbeans
-------------------------------------------------------------------------------
[/pre]